<svg width="24" height="20" viewBox="0 0 24 20" fill="none" xmlns="http://www.w3.org/2000/svg">
  <path d="M21.3333 16.4167C21.7827 16.4169 22.2148 16.59 22.5401 16.9002C22.8654 17.2103 23.0588 17.6337 23.0804 18.0826C23.102 18.5315 22.9501 18.9715 22.6561 19.3114C22.3621 19.6514 21.9486 19.8652 21.5013 19.9085L21.3333 19.9167H2.66666C2.21724 19.9165 1.78513 19.7434 1.45987 19.4332C1.13461 19.1231 0.941142 18.6997 0.919545 18.2508C0.897947 17.8019 1.04988 17.3619 1.34386 17.022C1.63784 16.682 2.05133 16.4682 2.49866 16.4249L2.66666 16.4167H21.3333ZM21.3333 8.25004C21.7975 8.25004 22.2426 8.43441 22.5708 8.7626C22.8989 9.09079 23.0833 9.53591 23.0833 10C23.0833 10.4642 22.8989 10.9093 22.5708 11.2375C22.2426 11.5657 21.7975 11.75 21.3333 11.75H2.66666C2.20253 11.75 1.75741 11.5657 1.42922 11.2375C1.10103 10.9093 0.916656 10.4642 0.916656 10C0.916656 9.53591 1.10103 9.09079 1.42922 8.7626C1.75741 8.43441 2.20253 8.25004 2.66666 8.25004H21.3333ZM21.3333 0.083374C21.7975 0.083374 22.2426 0.267749 22.5708 0.595937C22.8989 0.924126 23.0833 1.36925 23.0833 1.83337C23.0833 2.2975 22.8989 2.74262 22.5708 3.07081C22.2426 3.399 21.7975 3.58337 21.3333 3.58337H2.66666C2.20253 3.58337 1.75741 3.399 1.42922 3.07081C1.10103 2.74262 0.916656 2.2975 0.916656 1.83337C0.916656 1.36925 1.10103 0.924126 1.42922 0.595937C1.75741 0.267749 2.20253 0.083374 2.66666 0.083374H21.3333Z" fill="#01203F" />
</svg>