<svg xmlns="http://www.w3.org/2000/svg" style="display: none;">
  <symbol id="star" viewBox="0 0 24 24">
    <path d="M12 2l3 7h7l-5.5 4.5L18 21l-6-3-6 3 1.5-7.5L2 9h7z" />
  </symbol>
<symbol id="menu" width="24" height="20" viewBox="0 0 24 20" xmlns="http://www.w3.org/2000/svg">
  <path d="M21.3333 16.4167C21.7827 16.4169 22.2148 16.59 22.5401 16.9002C22.8654 17.2103 23.0588 17.6337 23.0804 18.0826C23.102 18.5315 22.9501 18.9715 22.6561 19.3114C22.3621 19.6514 21.9486 19.8652 21.5013 19.9085L21.3333 19.9167H2.66666C2.21724 19.9165 1.78513 19.7434 1.45987 19.4332C1.13461 19.1231 0.941142 18.6997 0.919545 18.2508C0.897947 17.8019 1.04988 17.3619 1.34386 17.022C1.63784 16.682 2.05133 16.4682 2.49866 16.4249L2.66666 16.4167H21.3333ZM21.3333 8.25004C21.7975 8.25004 22.2426 8.43441 22.5708 8.7626C22.8989 9.09079 23.0833 9.53591 23.0833 10C23.0833 10.4642 22.8989 10.9093 22.5708 11.2375C22.2426 11.5657 21.7975 11.75 21.3333 11.75H2.66666C2.20253 11.75 1.75741 11.5657 1.42922 11.2375C1.10103 10.9093 0.916656 10.4642 0.916656 10C0.916656 9.53591 1.10103 9.09079 1.42922 8.7626C1.75741 8.43441 2.20253 8.25004 2.66666 8.25004H21.3333ZM21.3333 0.083374C21.7975 0.083374 22.2426 0.267749 22.5708 0.595937C22.8989 0.924126 23.0833 1.36925 23.0833 1.83337C23.0833 2.2975 22.8989 2.74262 22.5708 3.07081C22.2426 3.399 21.7975 3.58337 21.3333 3.58337H2.66666C2.20253 3.58337 1.75741 3.399 1.42922 3.07081C1.10103 2.74262 0.916656 2.2975 0.916656 1.83337C0.916656 1.36925 1.10103 0.924126 1.42922 0.595937C1.75741 0.267749 2.20253 0.083374 2.66666 0.083374H21.3333Z" />
</symbol>
<symbol id="close" width="20" height="20" viewBox="0 0 20 20" fill="none" xmlns="http://www.w3.org/2000/svg">
  <path d="M0.559031 0.559099C0.91713 0.201108 1.40275 0 1.90911 0C2.41546 0 2.90108 0.201108 3.25918 0.559099L10.0115 7.31138L16.7637 0.559099C17.1239 0.211254 17.6063 0.0187788 18.1069 0.0231296C18.6076 0.0274804 19.0866 0.228309 19.4406 0.582361C19.7947 0.936413 19.9955 1.41536 19.9999 1.91605C20.0042 2.41673 19.8117 2.8991 19.4639 3.25925L12.7116 10.0115L19.4639 16.7638C19.8117 17.124 20.0042 17.6063 19.9999 18.107C19.9955 18.6077 19.7947 19.0866 19.4406 19.4407C19.0866 19.7947 18.6076 19.9956 18.1069 19.9999C17.6063 20.0043 17.1239 19.8118 16.7637 19.464L10.0115 12.7117L3.25918 19.464C2.89903 19.8118 2.41666 20.0043 1.91598 19.9999C1.41529 19.9956 0.936344 19.7947 0.582292 19.4407C0.228241 19.0866 0.0274117 18.6077 0.0230609 18.107C0.0187101 17.6063 0.211185 17.124 0.559031 16.7638L7.31131 10.0115L0.559031 3.25925C0.20104 2.90115 -6.86646e-05 2.41553 -6.86646e-05 1.90917C-6.86646e-05 1.40282 0.20104 0.917199 0.559031 0.559099Z" fill="#091739" />
</symbol>
</svg>