<svg width="71" height="62" viewBox="0 0 71 62" fill="none" xmlns="http://www.w3.org/2000/svg">
  <path d="M35.2725 57.4962C32.5202 61.2806 27.7036 61.7967 22.8871 60.9366C17.7266 60.2485 12.05 57.8403 9.12564 54.5719C8.09353 53.3678 7.5775 51.8196 7.92154 49.7554L8.26555 47.1751C5.51325 47.0031 3.10502 46.143 1.72887 44.2508C0.524739 42.8747 0.180702 41.3265 0.00868351 39.7783C-0.163335 35.8219 2.58893 20.8563 3.79306 17.0719C4.99719 13.2875 7.06141 10.8792 10.6738 9.84712C11.3619 9.61776 11.9926 9.44574 12.566 9.33106C12.91 1.76225 31.6601 -4.43041 35.2725 4.17051C38.8848 -4.43041 57.6348 1.76225 57.9789 9.33106C58.6669 9.44574 59.2977 9.61776 59.8711 9.84712C63.4835 10.8792 65.5477 13.2875 66.7518 17.0719C67.9559 20.8563 70.7082 35.8219 70.5362 39.7783C70.5362 41.3265 70.0202 42.8747 68.816 44.2508C67.4399 46.143 65.0316 47.0031 62.2793 47.1751L62.6234 49.7554C62.9674 51.8196 62.6233 53.3678 61.4192 54.5719C58.4949 57.8403 52.8183 60.2485 47.6578 60.9366C42.8412 61.7967 38.0248 61.2806 35.2725 57.4962Z" fill="url(#paint0_radial_18_2391)" />
  <path d="M35.2724 7.95496C43.0132 7.95496 49.2059 12.4274 49.2059 17.932C49.2059 23.4366 43.0132 27.9091 35.2724 27.9091C27.5315 27.9091 21.3389 23.4366 21.3389 17.932C21.3389 12.4274 27.5315 7.95496 35.2724 7.95496Z" fill="url(#paint1_radial_18_2391)" />
  <path d="M36.9927 12.0834C38.5408 13.4596 40.605 13.8036 42.4972 13.8036C41.8092 12.2554 41.2931 10.1912 40.7771 8.127C38.9422 8.35635 37.1074 8.58571 35.2725 8.81506C35.6165 10.0192 35.9606 11.2233 36.9927 12.0834ZM35.2725 8.81506C37.1074 8.58571 38.9422 8.35635 40.7771 8.127C40.261 5.54672 39.745 2.79442 39.4009 0.558182C37.5087 1.24626 36.1326 2.27836 35.2725 4.17057C35.2725 5.71873 35.1005 7.2669 35.2725 8.81506ZM42.4972 13.8036C47.3138 13.9756 55.2266 13.1155 57.4629 10.7073C58.323 9.84718 58.1509 8.64305 57.6349 7.43892C54.5386 7.43892 45.4216 7.43892 40.7771 8.127C41.2931 10.1912 41.8092 12.2554 42.4972 13.8036ZM40.7771 8.127C45.4216 7.43892 54.5386 7.43892 57.6349 7.43892C56.9468 6.06277 55.5706 4.85864 54.7106 4.17057C50.7541 0.902216 43.8734 -0.989984 39.4009 0.558182C39.745 2.79442 40.261 5.54672 40.7771 8.127Z" fill="url(#paint2_linear_18_2391)" />
  <path d="M13.2542 10.7072C14.6304 12.2553 18.2428 13.1154 22.0272 13.6315C22.0272 13.2874 22.0845 12.8861 22.1992 12.4273C18.4148 12.0833 14.1143 11.3952 12.7382 10.0191C12.8529 10.2484 13.0249 10.4778 13.2542 10.7072ZM12.7382 10.0191C14.1143 11.3952 18.4148 12.0833 22.1992 12.4273C22.3712 10.8792 22.8873 8.81495 23.4033 6.92275C19.791 6.92275 15.1464 6.92275 13.2542 7.09477C12.5661 8.12688 12.3941 9.15899 12.7382 10.0191ZM13.2542 7.09477C15.1464 6.92275 19.791 6.92275 23.4033 6.92275C24.0914 4.85853 24.6075 2.79431 25.1235 1.24614C21.6832 1.59018 17.7267 2.79431 15.3185 4.51449C14.6304 5.20256 13.7703 6.06266 13.2542 7.09477ZM15.3185 4.51449C17.7267 2.79431 21.6832 1.59018 25.1235 1.24614C25.2382 0.787426 25.3529 0.443388 25.4675 0.214031C22.0272 0.558067 18.4148 2.10623 15.8345 4.17045C15.7198 4.28513 15.5478 4.39981 15.3185 4.51449ZM22.0272 13.6315C25.4675 13.9755 30.6281 14.6636 33.5524 12.0833C33.7818 11.8539 34.0111 11.6246 34.2405 11.3952C31.1442 13.6315 25.8116 12.7714 22.1992 12.4273C22.0845 12.8861 22.0272 13.2874 22.0272 13.6315ZM22.1992 12.4273C25.8116 12.7714 31.1442 13.6315 34.2405 11.3952C34.9286 10.5351 35.1006 9.50302 35.2726 8.47091C31.4882 7.61082 27.3598 6.92275 23.4033 6.92275C22.8873 8.81495 22.3712 10.8792 22.1992 12.4273ZM23.4033 6.92275C27.3598 6.92275 31.4882 7.61082 35.2726 8.47091C35.4446 7.26678 35.2726 6.23467 35.2726 5.03054C33.5524 1.76219 29.424 0.730086 25.1235 1.24614C24.6075 2.79431 24.0914 4.85853 23.4033 6.92275ZM25.1235 1.24614C29.424 0.730086 33.5524 1.76219 35.2726 5.03054C35.2726 4.80119 35.2726 4.51449 35.2726 4.17045C33.8965 0.730084 29.768 -0.302025 25.4675 0.214031C25.3529 0.443388 25.2382 0.787426 25.1235 1.24614Z" fill="url(#paint3_linear_18_2391)" />
  <path style="mix-blend-mode:screen" opacity="0.5" d="M36.9926 12.0834C38.1968 13.1155 39.5729 13.6315 41.1211 13.8035C40.605 11.2233 40.777 9.84711 40.777 7.61088C38.8848 7.61088 36.9926 7.43886 35.2725 6.92281C35.2725 8.81501 35.4445 10.7072 36.9926 12.0834ZM35.2725 4.17051C35.2725 5.08794 35.2725 6.00537 35.2725 6.92281C36.9926 7.43886 38.8848 7.61088 40.777 7.61088C40.433 5.20262 40.6624 2.79436 41.4651 0.386105C40.2037 0.500784 39.0569 0.787481 38.0248 1.2462C36.8206 1.93427 35.7885 2.79436 35.2725 4.17051ZM41.1211 13.8035C44.3894 14.1476 48.6899 14.1476 51.6142 12.2554C52.9904 11.2233 54.3665 9.6751 54.3665 7.7829C50.0661 8.29895 45.2495 7.78289 40.777 7.61088C40.777 9.84711 40.605 11.2233 41.1211 13.8035ZM40.777 7.61088C45.2495 7.78289 50.0661 8.29895 54.3665 7.7829C54.5385 6.06271 53.1624 4.17051 50.5821 2.79436C47.6578 1.07418 44.3894 0.214086 41.4651 0.386105C40.6624 2.79436 40.433 5.20262 40.777 7.61088Z" fill="url(#paint4_linear_18_2391)" />
  <path style="mix-blend-mode:screen" d="M13.254 10.7072C14.2861 11.9114 16.5224 12.5994 19.1027 13.1155C20.0201 10.9366 20.8229 8.75768 21.511 6.57878C18.4146 6.57878 15.4903 6.57878 13.4261 6.92282C12.738 7.95493 12.2219 9.67512 13.254 10.7072ZM13.4261 6.92282C15.4903 6.57878 18.4146 6.57878 21.511 6.57878C21.9697 4.8586 22.199 3.08107 22.199 1.24621C19.6187 1.93428 17.3825 3.13841 15.6623 4.51456C14.8022 5.20263 13.9421 5.89071 13.4261 6.92282ZM19.1027 13.1155C22.7151 13.8036 26.6715 13.9756 29.2518 13.8036C31.316 13.6315 33.0362 11.2233 33.3802 8.47098C29.7678 6.92282 25.4674 6.57878 21.511 6.57878C20.8229 8.75768 20.0201 10.9366 19.1027 13.1155ZM21.511 6.57878C25.4674 6.57878 29.7678 6.92282 33.3802 8.47098C33.5522 6.40676 32.8641 4.34254 31.316 2.96639C28.9077 0.558136 25.2953 0.558136 22.199 1.24621C22.199 3.08107 21.9697 4.8586 21.511 6.57878Z" fill="url(#paint5_linear_18_2391)" />
  <path style="mix-blend-mode:multiply" d="M28.9079 13.8036C26.1556 11.0513 18.4147 8.12695 14.1143 11.3953C17.3826 13.4595 24.7794 14.1476 28.9079 13.8036Z" fill="url(#paint6_radial_18_2391)" />
  <path d="M3.79306 17.0719C2.58893 20.8563 -0.163335 35.8219 0.00868351 39.7783C0.180702 41.3265 0.524739 42.8746 1.72887 44.2508C3.10501 46.143 5.51325 47.0031 8.26555 47.1751C8.38022 46.8311 8.49492 46.5444 8.6096 46.315C4.99722 46.143 2.07289 43.0467 1.55684 39.4343C1.2128 37.026 1.72885 34.2737 2.2449 31.8655C2.8183 28.4251 3.44904 25.0421 4.13711 21.7164C4.48115 19.9962 4.88255 18.3334 5.34126 16.7278C5.6853 15.1797 6.02934 13.2875 7.06145 11.9113C6.48805 12.2554 6.02931 12.7141 5.68527 13.2875C4.88252 14.3196 4.25177 15.5811 3.79306 17.0719ZM5.34126 16.7278C4.88255 18.3334 4.48115 19.9962 4.13711 21.7164C3.44904 25.0421 2.8183 28.4251 2.2449 31.8655C1.72885 34.2737 1.2128 37.026 1.55684 39.4343C2.07289 43.0467 4.99722 46.143 8.6096 46.315C8.72428 45.971 8.89628 45.6269 9.12564 45.2829C6.54536 44.9389 4.82519 42.5306 4.13711 40.2944C2.93299 37.198 3.62107 33.9297 4.30914 30.8334C4.99722 27.221 5.68527 23.7806 6.54536 20.1682C7.06142 18.448 7.5775 16.8999 7.92154 15.1797C8.26558 13.6315 8.26554 11.9113 8.95361 10.5352C8.26554 10.8792 7.63484 11.3379 7.06145 11.9113C6.02934 13.2875 5.6853 15.1797 5.34126 16.7278ZM7.92154 15.1797C7.5775 16.8999 7.06142 18.448 6.54536 20.1682C5.68527 23.7806 4.99722 27.221 4.30914 30.8334C3.62107 33.9297 2.93299 37.198 4.13711 40.2944C4.82519 42.5306 6.54536 44.9389 9.12564 45.2829C9.355 44.9389 9.58434 44.5375 9.8137 44.0788C7.23342 43.3907 6.20135 39.4343 6.02933 37.198C5.68529 34.1017 6.71738 31.0054 7.40545 27.909C8.26555 24.8127 9.12565 21.5444 10.1578 18.448C10.5018 17.0719 11.0179 15.6957 11.3619 14.3196C11.5339 12.7714 11.1899 11.0512 11.7059 9.50307C10.7885 9.73243 9.87104 10.0765 8.95361 10.5352C8.26554 11.9113 8.26558 13.6315 7.92154 15.1797ZM11.3619 14.3196C11.0179 15.6957 10.5018 17.0719 10.1578 18.448C9.12565 21.5444 8.26555 24.8127 7.40545 27.909C6.71738 31.0054 5.68529 34.1017 6.02933 37.198C6.20135 39.4343 7.23342 43.3907 9.8137 44.0788C10.2724 43.1613 10.7312 42.1866 11.1899 41.1545C11.1899 39.9503 10.8458 38.7462 11.0179 37.3701C11.0179 35.9939 11.3619 34.4457 11.5339 33.0696C12.222 30.3173 13.4261 27.565 14.6302 24.8127C15.6624 22.2324 16.6945 19.6522 18.0706 17.2439C18.7587 16.2118 19.6188 15.0077 19.6188 13.6315C19.6188 12.5994 19.2747 10.8792 18.7587 10.0191C16.5224 9.33105 13.9422 9.15904 11.7059 9.50307C11.1899 11.0512 11.5339 12.7714 11.3619 14.3196ZM19.6188 13.6315C19.6188 15.0077 18.7587 16.2118 18.0706 17.2439C16.6945 19.6522 15.6624 22.2324 14.6302 24.8127C13.4261 27.565 12.222 30.3173 11.5339 33.0696C11.3619 34.4457 11.0179 35.9939 11.0179 37.3701C10.8458 38.7462 11.1899 39.9503 11.1899 41.1545C11.6486 40.5811 12.0499 39.9503 12.394 39.2623C13.2541 37.5421 13.5981 35.8219 14.4582 33.9297C15.1463 32.7256 15.4903 31.1774 16.1784 29.9733C18.4146 26.1889 20.4789 21.2003 23.4032 17.932C24.2633 17.0719 24.9514 16.3838 25.1234 15.5237C25.1234 15.0077 25.1234 14.4916 24.9514 14.1476C24.6073 13.2875 24.0913 12.4274 23.4032 11.9113C22.027 11.0512 20.4789 10.3632 18.7587 10.0191C19.2747 10.8792 19.6188 12.5994 19.6188 13.6315ZM24.9514 14.1476C25.1234 14.4916 25.1234 15.0077 25.1234 15.5237C24.9514 16.3838 24.2633 17.0719 23.4032 17.932C20.4789 21.2003 18.4146 26.1889 16.1784 29.9733C15.4903 31.1774 15.1463 32.7256 14.4582 33.9297C13.5981 35.8219 13.2541 37.5421 12.394 39.2623C12.5087 38.9182 12.6807 38.6315 12.9101 38.4022C16.8665 31.5214 21.3389 24.9847 26.3275 19.3081C27.1876 18.448 27.8756 17.932 27.8756 17.0719C28.0477 15.6957 26.8436 14.3196 25.1234 13.1155C24.55 12.6567 23.9766 12.2554 23.4032 11.9113C24.0913 12.4274 24.6073 13.2875 24.9514 14.1476Z" fill="url(#paint7_linear_18_2391)" />
  <path fill-rule="evenodd" clip-rule="evenodd" d="M68.816 44.2508C67.4398 46.143 65.0316 47.0031 62.2793 47.1751C62.1646 46.8311 62.0499 46.5444 61.9353 46.315C61.8206 45.971 61.6485 45.6269 61.4192 45.2829C61.1898 44.9389 61.0178 44.5375 60.9031 44.0788C60.3297 43.1613 59.8137 42.1866 59.355 41.1545C59.0109 40.5811 58.6095 39.9503 58.1508 39.2623C58.0362 38.9182 57.8642 38.6315 57.6348 38.4022C55.5706 34.6178 53.1623 30.8334 50.582 27.221C51.2701 27.393 52.3022 27.393 52.9903 27.393C51.2701 24.1246 42.1531 15.3517 47.1417 11.9113C46.5683 12.2554 45.9949 12.6567 45.4215 13.1155C43.7013 14.3196 42.4972 15.6957 42.6692 17.0719C42.6692 17.932 43.3572 18.448 44.2173 19.3081C46.3962 21.8311 48.5178 24.4687 50.582 27.221C51.2701 27.393 52.3022 27.393 52.9903 27.393C51.2701 24.1246 42.1531 15.3517 47.1417 11.9113C48.6898 11.0512 50.238 10.3632 51.7862 10.0191C54.1944 9.33105 56.6027 9.15904 58.8389 9.50307C59.7563 9.73243 60.6738 10.0765 61.5912 10.5352C62.2793 10.8792 62.9674 11.3379 63.6554 11.9113C64.1142 12.2554 64.5155 12.7141 64.8595 13.2875C65.6623 14.3196 66.293 15.5811 66.7518 17.0719C67.7839 20.1682 69.8481 31.1774 70.3641 37.026C70.7082 39.6063 70.5362 42.1866 68.816 44.2508Z" fill="url(#paint8_linear_18_2391)" />
  <path style="mix-blend-mode:screen" opacity="0.2" d="M65.3756 39.9504C65.6049 40.1797 65.8343 40.2944 66.0636 40.2944C65.8916 38.5742 64.8595 32.5536 63.8274 27.221C62.9673 27.221 61.9352 27.393 61.2471 27.737C62.4513 32.7256 64.1714 38.2302 65.3756 39.9504ZM61.2471 27.737C61.9352 27.393 62.9673 27.221 63.8274 27.221C63.598 25.7302 63.3686 24.354 63.1393 23.0925C62.1072 23.2646 61.2471 23.4366 60.387 23.7806C60.6164 25.0421 60.9031 26.3609 61.2471 27.737ZM60.387 23.7806C61.2471 23.4366 62.1072 23.2646 63.1393 23.0925C62.9099 21.7164 62.6806 20.3403 62.4512 18.9641C61.7631 18.9641 60.387 18.104 59.8709 18.4481C59.6989 20.3403 60.043 22.0604 60.387 23.7806ZM59.8709 18.4481C60.387 18.104 61.7631 18.9641 62.4512 18.9641C62.3365 17.932 62.1645 16.8999 61.9352 15.8678C61.2471 16.0398 60.7311 16.2118 60.387 16.7279C60.215 17.0719 60.043 17.588 59.8709 18.4481ZM66.0636 40.2944C66.293 40.2944 66.5223 40.065 66.7517 39.6063C67.4398 37.7141 67.2677 32.0375 66.5797 26.7049C65.8916 26.877 64.8595 27.049 63.8274 27.221C64.8595 32.5536 65.8916 38.5742 66.0636 40.2944ZM63.8274 27.221C64.8595 27.049 65.8916 26.877 66.5797 26.7049C66.465 25.3288 66.293 24.0673 66.0636 22.9205C65.2035 22.9205 64.1714 23.0925 63.1393 23.0925C63.3686 24.354 63.598 25.7302 63.8274 27.221ZM63.1393 23.0925C64.1714 23.0925 65.2035 22.9205 66.0636 22.9205C65.7196 21.2003 65.3756 19.3081 64.6875 17.76C64.1714 17.588 63.3113 18.7921 62.4512 18.9641C62.6806 20.3403 62.9099 21.7164 63.1393 23.0925ZM62.4512 18.9641C63.3113 18.7921 64.1714 17.588 64.6875 17.76C64.3435 16.8999 63.9994 16.3838 63.6554 16.2118C63.3113 15.8678 62.6233 15.6958 61.9352 15.8678C62.1645 16.8999 62.3365 17.932 62.4512 18.9641Z" fill="url(#paint9_linear_18_2391)" />
  <path style="mix-blend-mode:multiply" d="M14.6301 33.4136C17.3824 34.2737 20.6508 33.7576 23.4031 32.7255C22.543 30.6613 21.5109 28.4251 20.6508 26.1888C17.4398 27.565 14.2288 28.9411 11.0177 30.3173C11.5338 31.6934 12.91 32.8975 14.6301 33.4136ZM11.0177 30.3173C14.2288 28.9411 17.4398 27.565 20.6508 26.1888C19.6187 23.9526 18.7586 21.7164 17.8985 19.8241C15.1462 20.8563 12.5659 22.9205 11.1898 25.6728C10.5017 27.2209 10.5017 28.9411 11.0177 30.3173ZM23.4031 32.7255C26.4994 31.3494 28.7356 29.1131 29.9398 26.8769C30.6278 25.1567 30.6279 23.6086 30.1118 22.0604C28.3916 22.9205 23.7471 24.8127 20.6508 26.1888C21.5109 28.4251 22.543 30.6613 23.4031 32.7255ZM20.6508 26.1888C23.7471 24.8127 28.3916 22.9205 30.1118 22.0604C29.4237 20.6842 28.2196 19.6521 26.4994 19.1361C24.0911 18.276 20.9948 18.448 17.8985 19.8241C18.7586 21.7164 19.6187 23.9526 20.6508 26.1888Z" fill="url(#paint10_linear_18_2391)" />
  <path style="mix-blend-mode:multiply" opacity="0.3" d="M48.8619 25.1568C47.1417 28.9412 47.1417 33.2417 48.1739 36.854C50.9262 36.166 54.1945 35.3059 57.2908 34.4458C56.144 29.9733 54.9972 25.5582 53.8504 21.2004C51.7862 21.7164 50.0661 23.0926 48.8619 25.1568ZM53.8504 21.2004C54.9972 25.5582 56.144 29.9733 57.2908 34.4458C60.5592 33.5857 63.6555 32.7256 66.4078 32.0375C65.3757 28.2531 63.3115 24.4687 60.0431 22.2325C57.9789 21.0283 55.7426 20.6843 53.8504 21.2004ZM48.1739 36.854C49.378 41.1545 51.7862 44.5949 54.5385 46.4871C56.6027 47.8632 58.839 48.2073 60.7312 47.6912C60.2151 45.1109 58.4949 38.7462 57.2908 34.4458C54.1945 35.3059 50.9262 36.166 48.1739 36.854ZM57.2908 34.4458C58.4949 38.7462 60.2151 45.1109 60.7312 47.6912C62.7954 47.0031 64.5156 45.627 65.5477 43.5628C67.0959 40.6384 67.6119 36.338 66.4078 32.0375C63.6555 32.7256 60.5592 33.5857 57.2908 34.4458Z" fill="url(#paint11_linear_18_2391)" />
  <path d="M10.33 31.1774C9.64193 36.4526 8.95384 41.7852 8.26576 47.1751C7.92173 49.5834 7.23365 52.3357 9.12585 54.5719C9.35521 54.8013 9.52726 54.9733 9.64194 55.088C7.92176 53.1958 8.43781 50.2715 8.78185 47.8632C9.24057 44.7669 9.64191 41.6132 9.98595 38.4022C10.674 32.7256 10.502 26.5329 15.6626 23.0925C15.4332 23.2072 15.2612 23.3219 15.1465 23.4366C12.0502 25.5008 10.674 27.565 10.33 31.1774ZM9.98595 38.4022C9.64191 41.6132 9.24057 44.7669 8.78185 47.8632C8.43781 50.2715 7.92176 53.1958 9.64194 55.088C10.6741 56.1201 11.8781 56.9802 13.2543 57.6682C11.7061 55.432 12.2222 52.1637 12.5662 49.5834C12.9103 46.143 13.4263 42.3586 13.7704 38.9182C14.1144 35.3058 14.2864 31.0054 15.3185 27.565C16.0066 25.5008 16.8667 23.0925 18.4148 21.5444C17.4974 22.0031 16.58 22.5191 15.6626 23.0925C10.502 26.5329 10.674 32.7256 9.98595 38.4022ZM15.3185 27.565C14.2864 31.0054 14.1144 35.3058 13.7704 38.9182C13.4263 42.3586 12.9103 46.143 12.5662 49.5834C12.2222 52.1637 11.7061 55.432 13.2543 57.6682C13.9424 58.127 14.7452 58.5283 15.6626 58.8724C13.9424 56.2921 14.8025 52.6797 15.1465 49.9274C15.4905 46.487 15.7772 43.0467 16.0066 39.6063C16.3506 36.338 16.5227 32.8976 17.0387 29.6292C17.5548 26.7049 18.2428 23.0925 20.135 20.6843C19.5616 20.9136 18.9882 21.2003 18.4148 21.5444C16.8667 23.0925 16.0066 25.5008 15.3185 27.565ZM17.0387 29.6292C16.5227 32.8976 16.3506 36.338 16.0066 39.6063C15.7772 43.0467 15.4905 46.487 15.1465 49.9274C14.8025 52.6797 13.9424 56.2921 15.6626 58.8724C17.3828 59.7325 19.2749 60.2485 21.1671 60.7646C19.963 57.4962 20.4791 53.7118 20.8231 50.4435C20.9378 47.0031 21.1098 43.5627 21.3392 40.1224C21.6832 33.0696 22.0272 26.3609 23.7474 19.4802C22.486 19.8242 21.2818 20.2256 20.135 20.6843C18.2428 23.0925 17.5548 26.7049 17.0387 29.6292ZM21.3392 40.1224C21.1098 43.5627 20.9378 47.0031 20.8231 50.4435C20.4791 53.7118 19.963 57.4962 21.1671 60.7646C21.7405 60.8793 22.3139 60.9366 22.8873 60.9366C25.2956 61.2806 27.5318 61.4526 29.596 60.9366C29.08 57.8403 29.252 53.7118 29.4241 50.4435C29.4241 47.1751 29.424 43.2187 29.596 39.9503C29.596 35.9939 29.5961 31.3494 29.9401 27.393C30.1121 24.8127 29.9401 21.7164 29.596 19.3081C27.7038 18.9641 25.6396 19.1361 23.7474 19.4802C22.0272 26.3609 21.6832 33.0696 21.3392 40.1224ZM29.9401 27.393C29.5961 31.3494 29.596 35.9939 29.596 39.9503C29.424 43.2187 29.4241 47.1751 29.4241 50.4435C29.252 53.7118 29.08 57.8403 29.596 60.9366C31.1442 60.5926 32.3484 60.0765 33.5525 59.2164C33.2085 52.5077 33.3805 45.799 33.3805 39.0903C33.4951 35.8792 33.5525 32.6109 33.5525 29.2852C33.5525 26.5329 33.7245 23.2646 32.3483 20.6843C31.5456 19.9962 30.6281 19.5375 29.596 19.3081C29.9401 21.7164 30.1121 24.8127 29.9401 27.393ZM33.5525 29.2852C33.5525 32.6109 33.4951 35.8792 33.3805 39.0903C33.3805 45.799 33.2085 52.5077 33.5525 59.2164C34.2406 58.7577 34.814 58.1843 35.2727 57.4962C35.2727 47.8632 35.2727 38.2875 35.2727 28.7691C35.2727 26.3609 34.9286 23.9526 33.7245 22.0604C33.2658 21.487 32.8071 21.0283 32.3483 20.6843C33.7245 23.2646 33.5525 26.5329 33.5525 29.2852Z" fill="url(#paint12_linear_18_2391)" />
  <path style="mix-blend-mode:multiply" opacity="0.5" fill-rule="evenodd" clip-rule="evenodd" d="M59.699 25.6728C64.5155 30.1452 64.6876 37.7141 65.3757 43.7347C65.4903 44.0787 65.5477 44.3654 65.5477 44.5948C65.5477 46.659 64.1715 47.003 62.2793 47.1751C61.8206 46.0283 61.3045 44.8815 60.7312 43.7347C60.5018 43.276 60.2151 42.8173 59.8711 42.3585C60.0431 41.8425 61.2472 42.1865 61.7633 41.8425C61.7633 41.6131 61.7633 41.3838 61.7633 41.1544C61.5913 40.6384 61.0752 39.7783 59.8711 38.5741C60.0431 38.7462 60.9032 39.6063 61.7633 40.4663C62.1073 40.8104 62.394 41.1544 62.6234 41.4985C63.6555 42.3585 63.9995 42.8746 61.7633 40.4663C61.0752 39.7783 60.4445 39.1475 59.8711 38.5741C58.4949 37.3127 57.1188 36.1085 55.7426 34.9618C52.3023 29.4572 48.3458 24.1246 44.3894 19.4801C46.9123 19.7095 49.3206 20.2255 51.6142 21.0283C52.5316 21.3723 53.4491 21.7737 54.3665 22.2324C56.5454 23.1498 58.3229 24.2966 59.699 25.6728ZM58.1509 39.2622C58.7243 40.2943 59.2977 41.3264 59.8711 42.3585C60.0431 41.4985 60.3871 40.2943 59.8711 38.5741C58.4949 37.3127 57.1188 36.1085 55.7426 34.9618C56.5454 36.3379 57.3481 37.7714 58.1509 39.2622Z" fill="url(#paint13_linear_18_2391)" />
  <path d="M35.2725 28.7692C35.2725 38.2875 35.2725 47.8632 35.2725 57.4963C35.9605 58.4137 36.8206 59.1591 37.8527 59.7325C37.6807 54.744 37.3367 47.6912 37.5087 40.4664C37.5087 36.854 37.5087 33.2417 37.5087 29.6293C37.5087 26.5329 37.3367 23.0926 38.5408 20.3403C37.8527 20.799 37.3367 21.3724 36.9926 22.0605C35.6165 23.9527 35.2725 26.3609 35.2725 28.7692ZM37.5087 29.6293C37.5087 33.2417 37.5087 36.854 37.5087 40.4664C37.3367 47.6912 37.6807 54.744 37.8527 59.7325C39.2289 60.5926 40.7771 60.9366 42.3252 61.1086C42.6693 59.7325 42.1532 57.3242 41.9812 54.2279C41.8091 51.1316 41.8091 47.1751 41.8091 43.0467C41.8091 38.9183 41.8091 34.6178 41.8091 30.4894C41.8091 26.5329 41.2931 22.5765 41.8091 19.1361C40.5477 19.3655 39.4582 19.7669 38.5408 20.3403C37.3367 23.0926 37.5087 26.5329 37.5087 29.6293ZM41.8091 30.4894C41.8091 34.6178 41.8091 38.9183 41.8091 43.0467C41.8091 47.1751 41.8091 51.1316 41.9812 54.2279C42.1532 57.3242 42.6693 59.7325 42.3252 61.1086C44.0454 61.4527 45.9376 61.2807 47.6578 60.9366C49.3779 60.7646 51.0981 60.4206 52.8183 59.7325C53.3344 58.0123 53.3344 55.9481 53.1624 54.3999C53.1624 52.3357 52.8183 50.4435 52.8183 48.5513C52.4743 44.9389 52.3023 41.6706 52.1302 38.5742C51.7862 35.3059 51.7862 32.2095 51.4422 28.9412C51.0981 26.0169 50.066 23.0926 49.0339 20.1683C46.6257 19.3082 44.2174 18.9641 41.8091 19.1361C41.2931 22.5765 41.8091 26.5329 41.8091 30.4894ZM51.4422 28.9412C51.7862 32.2095 51.7862 35.3059 52.1302 38.5742C52.3023 41.6706 52.4743 44.9389 52.8183 48.5513C52.8183 50.4435 53.1624 52.3357 53.1624 54.3999C53.3344 55.9481 53.3344 58.0123 52.8183 59.7325C54.8825 59.0444 56.7748 58.1843 58.4949 57.1522C60.0431 54.744 59.183 51.3036 58.8389 48.5513C58.4949 45.3403 58.1509 42.1293 57.8069 38.9183C57.1188 32.7256 57.1188 26.705 52.9903 21.8884C51.7289 21.2004 50.4101 20.627 49.0339 20.1683C50.066 23.0926 51.0981 26.0169 51.4422 28.9412ZM57.8069 38.9183C58.1509 42.1293 58.4949 45.3403 58.8389 48.5513C59.183 51.3036 60.0431 54.744 58.4949 57.1522C59.6417 56.3495 60.6165 55.4894 61.4192 54.5719C63.3114 52.3357 62.6234 49.5834 62.2793 47.1751C61.7059 41.7852 61.0752 36.4527 60.3872 31.1774C59.8711 27.565 58.4949 25.5008 55.5706 23.4366C54.7679 22.8632 53.9078 22.3472 52.9903 21.8884C57.1188 26.705 57.1188 32.7256 57.8069 38.9183Z" fill="url(#paint14_linear_18_2391)" />
  <path style="mix-blend-mode:screen" d="M0.00873959 39.7783C0.180758 41.3264 0.524795 42.8746 1.72892 44.2508C2.07296 44.7668 2.76103 45.4549 3.44911 45.7989C0.00873974 35.9939 3.79315 23.7806 8.78169 15.1796C6.71747 15.5237 4.82527 16.3838 3.62114 18.104C2.24499 22.9205 -0.163279 36.1659 0.00873959 39.7783ZM3.62114 18.104C4.82527 16.3838 6.71747 15.5237 8.78169 15.1796C9.64178 13.4595 10.1578 12.4273 10.1578 10.5351C8.09359 11.0512 6.20139 12.4273 4.99726 14.3196C4.30919 15.5237 3.96517 16.7278 3.62114 18.104ZM3.44911 45.7989C4.13718 46.315 4.99725 46.659 5.68533 46.315C6.54542 45.9709 6.54542 44.9388 6.54542 44.0787C7.23349 39.6063 7.57754 34.9618 8.43763 30.3173C9.46974 24.8127 11.1899 21.8884 15.1463 19.4801C17.7266 17.7599 20.6509 17.0718 22.7151 16.5558C18.5867 14.1475 13.2542 14.1475 8.78169 15.1796C3.79315 23.7806 0.00873974 35.9939 3.44911 45.7989ZM8.78169 15.1796C13.2542 14.1475 18.5867 14.1475 22.7151 16.5558C24.2633 15.8677 25.2954 15.0076 23.7473 13.6315C20.1349 10.5351 14.6303 9.159 10.1578 10.5351C10.1578 12.4273 9.64178 13.4595 8.78169 15.1796Z" fill="url(#paint15_linear_18_2391)" />
  <path style="mix-blend-mode:screen" opacity="0.7" d="M10.33 31.1774C9.64193 36.4526 8.95384 41.7852 8.26576 47.1751C7.92173 49.5834 7.23365 52.3357 9.12585 54.5719C11.1901 56.9802 14.8025 58.8724 18.4148 59.9045C17.2107 56.6361 18.5869 38.2302 19.103 29.4572C16.3507 29.6292 13.4263 29.4572 10.674 29.2852C10.4447 29.8586 10.33 30.4893 10.33 31.1774ZM10.674 29.2852C13.4263 29.4572 16.3507 29.6292 19.103 29.4572C19.447 26.0169 19.791 22.9205 20.6511 20.6843C18.5869 21.2003 16.8667 22.2325 15.1465 23.4366C12.5662 25.1568 11.1901 26.877 10.674 29.2852ZM18.4148 59.9045C21.1671 60.7646 24.0914 61.2806 27.0158 61.2806C29.424 61.2806 31.3162 59.3884 31.4882 56.9802C31.8323 52.3357 31.8323 47.5192 31.8323 42.8747C32.0043 38.2302 32.1763 33.4137 31.8323 28.5971C27.8759 29.1132 23.2314 29.4572 19.103 29.4572C18.5869 38.2302 17.2107 56.6361 18.4148 59.9045ZM19.103 29.4572C23.2314 29.4572 27.8759 29.1132 31.8323 28.5971C31.6603 25.6728 30.9722 22.2325 29.08 20.8563C27.0158 19.3081 23.4034 19.8242 20.6511 20.6843C19.791 22.9205 19.447 26.0169 19.103 29.4572Z" fill="url(#paint16_linear_18_2391)" />
  <path style="mix-blend-mode:screen" d="M13.9422 57.6683C10.1578 55.26 8.09359 52.8518 7.92158 49.2394V49.7554C7.57754 51.8197 8.09356 53.3678 9.12567 54.572C12.05 57.8403 17.7266 60.2486 22.8871 60.9366C26.8436 61.6247 30.972 61.2807 33.7243 59.0444C32.1762 60.0765 30.2839 60.7646 27.8757 60.9366C23.4032 61.4527 18.2427 60.0765 13.9422 57.6683Z" fill="url(#paint17_radial_18_2391)" />
  <path style="mix-blend-mode:multiply" d="M58.6669 50.7875C59.011 54.3999 58.1509 56.4641 56.7747 58.0123C58.6669 56.9801 60.2151 55.948 61.4192 54.5719C62.6233 53.3678 62.9674 51.8196 62.6233 49.7554L62.2793 47.1751L60.3871 31.1774C59.8711 27.565 58.4949 25.5008 55.5706 23.4366C51.7862 20.8563 47.3137 18.9641 42.6692 19.1361C40.605 19.1361 38.8848 19.8242 37.6807 21.2003C38.5408 20.5122 39.5728 19.9962 40.777 19.8242C45.9375 19.3081 54.7105 24.1246 56.0867 29.4572C57.4628 34.6178 58.1509 44.2508 58.6669 50.7875Z" fill="url(#paint18_radial_18_2391)" />
  <path style="mix-blend-mode:screen" d="M58.323 57.1522C52.6464 60.4206 41.6372 62.6568 35.7886 58.1843C38.7129 61.2807 43.1854 61.6247 47.6578 60.9366C51.2702 60.4206 55.3987 59.0444 58.323 57.1522Z" fill="url(#paint19_radial_18_2391)" />
  <path style="mix-blend-mode:screen" opacity="0.6" d="M36.3047 28.7691C36.3047 36.9113 36.3047 45.1109 36.3047 53.3678C36.4767 55.0879 36.6487 56.2921 37.3368 57.1522C38.0248 58.0122 39.745 58.7003 41.6372 59.0444C39.229 51.3035 41.6372 38.4022 41.6372 30.4893C39.745 29.8012 38.0248 28.9411 36.4767 28.4251C36.362 28.5398 36.3047 28.6544 36.3047 28.7691ZM36.4767 28.4251C38.0248 28.9411 39.745 29.8012 41.6372 30.4893C41.6372 28.2531 41.1212 23.4366 43.1854 21.8884C42.268 21.5443 41.2932 21.4297 40.2611 21.5443C37.6808 21.8884 36.4767 25.6728 36.4767 28.4251ZM41.6372 59.0444C44.7335 59.5604 48.346 59.2164 49.8941 57.8402C50.7542 56.9801 51.2703 55.604 51.2703 53.7118C51.0982 47.1751 50.5822 40.6384 50.0662 34.1017C50.0662 33.5283 50.0088 32.9549 49.8941 32.3815C47.6579 31.6934 44.5615 31.3494 41.6372 30.4893C41.6372 38.4022 39.229 51.3035 41.6372 59.0444ZM41.6372 30.4893C44.5615 31.3494 47.6579 31.6934 49.8941 32.3815C49.5501 29.6292 48.862 27.0489 46.9698 24.8127C45.9377 23.6086 44.5616 22.4044 43.1854 21.8884C41.1212 23.4366 41.6372 28.2531 41.6372 30.4893Z" fill="url(#paint20_linear_18_2391)" />
  <path style="mix-blend-mode:screen" d="M44.5615 18.9641C46.9698 19.3081 49.206 19.6522 51.4422 20.3402C50.2955 18.276 49.6074 16.0398 49.378 13.6315C47.1991 13.9756 45.0776 14.549 43.0133 15.3517C42.1533 16.7279 42.8413 18.6201 44.5615 18.9641ZM43.0133 15.3517C45.0776 14.549 47.1991 13.9756 49.378 13.6315C49.378 12.7714 49.206 11.7393 49.034 11.0512C47.3138 11.7393 45.7656 12.5994 44.3895 13.8035C43.8734 14.3196 43.3574 14.8357 43.0133 15.3517ZM51.4422 20.3402C55.5707 21.3724 59.8711 22.2324 62.2794 17.4159C63.4835 15.1797 63.3115 13.1155 61.9354 11.7393C57.8069 12.7714 53.5064 12.9434 49.378 13.6315C49.6074 16.0398 50.2955 18.276 51.4422 20.3402ZM49.378 13.6315C53.5064 12.9434 57.8069 12.7714 61.9354 11.7393C61.362 11.1659 60.5592 10.6499 59.5271 10.1912C57.8069 9.50308 55.9147 9.33107 54.1945 9.50308C52.3597 9.73244 50.6395 10.2485 49.034 11.0512C49.206 11.7393 49.378 12.7714 49.378 13.6315Z" fill="url(#paint21_linear_18_2391)" />
  <path style="mix-blend-mode:screen" d="M3.27688 22.2324C2.93284 24.4687 3.10487 25.8448 3.44891 26.3609C3.96497 27.049 4.99709 26.5329 6.20122 25.1568C6.71727 21.7164 9.12553 18.6201 8.78149 15.1797C7.40534 16.2118 4.99707 17.4159 4.13697 18.7921C3.79294 19.9962 3.62092 21.2003 3.27688 22.2324ZM4.13697 18.7921C4.99707 17.4159 7.40534 16.2118 8.78149 15.1797C8.78149 13.9756 8.43745 12.7714 7.9214 12.0834C6.54525 12.9435 5.51311 14.3196 4.82504 16.2118C4.59568 17.0146 4.36633 17.8746 4.13697 18.7921ZM6.20122 25.1568C8.09342 23.0925 9.29754 20.8563 11.1897 18.9641C12.3939 17.76 13.942 16.8999 16.5223 15.3517C18.2425 14.4916 18.7586 13.2875 18.2425 12.2554C15.1462 12.2554 11.3618 13.4595 8.78149 15.1797C9.12553 18.6201 6.71727 21.7164 6.20122 25.1568ZM8.78149 15.1797C11.3618 13.4595 15.1462 12.2554 18.2425 12.2554C17.7264 11.5673 16.8663 11.0513 15.3182 10.7072C12.5659 10.3632 9.8136 10.7072 7.9214 12.0834C8.43745 12.7714 8.78149 13.9756 8.78149 15.1797Z" fill="url(#paint22_linear_18_2391)" />
  <path style="mix-blend-mode:screen" opacity="0.7" d="M10.3298 38.5741C9.98572 41.4985 8.95361 45.6269 10.3298 48.3792C11.1899 50.2714 13.2541 51.8196 15.6623 52.6797C16.3504 45.1108 17.3825 36.1659 18.7587 28.081C15.8343 28.081 13.2541 28.7691 11.7059 29.6292C10.8458 32.3815 10.6738 35.6498 10.3298 38.5741ZM11.7059 29.6292C13.2541 28.7691 15.8343 28.081 18.7587 28.081C19.1027 25.9021 19.6187 23.7806 20.3068 21.7163C17.7265 22.5764 15.3183 24.2966 14.1141 25.5007C12.91 26.5329 12.2219 27.909 11.7059 29.6292ZM15.6623 52.6797C18.9307 54.0558 22.5431 54.3998 24.2633 53.5397C25.8114 52.6797 26.8435 51.1315 27.1875 48.2072C27.5316 44.4228 27.7036 35.3058 27.8756 30.4893C27.1875 28.9411 23.0591 27.909 18.7587 28.081C17.3825 36.1659 16.3504 45.1108 15.6623 52.6797ZM18.7587 28.081C23.0591 27.909 27.1875 28.9411 27.8756 30.4893C27.8756 28.5971 27.8756 26.5329 27.7036 24.6407C27.0156 20.5122 23.5752 20.5122 20.3068 21.7163C19.6187 23.7806 19.1027 25.9021 18.7587 28.081Z" fill="url(#paint23_linear_18_2391)" />
  <path style="mix-blend-mode:screen" d="M4.8252 17.7599C4.8252 18.6774 4.99725 19.3081 5.34128 19.6521C5.5133 18.9641 6.02933 17.5879 6.71741 16.2118C6.37337 16.0398 5.68532 15.6957 5.34128 15.3517C4.99725 16.2118 4.8252 17.2439 4.8252 17.7599ZM5.34128 15.3517C5.68532 15.6957 6.37337 16.0398 6.71741 16.2118C7.40548 15.1797 7.92154 14.3196 8.43759 13.9755C7.8642 13.8609 7.34815 13.8609 6.88944 13.9755C6.20136 14.1476 5.68532 14.6636 5.34128 15.3517ZM5.34128 19.6521C6.71743 21.2003 8.60963 19.4801 9.64174 18.62C9.98578 18.276 10.5018 17.7599 10.6738 17.4159C9.29766 17.1865 7.97888 16.7852 6.71741 16.2118C6.02933 17.5879 5.5133 18.9641 5.34128 19.6521ZM6.71741 16.2118C7.97888 16.7852 9.29766 17.1865 10.6738 17.4159C10.9032 17.0719 11.0752 16.7852 11.1899 16.5558C11.3619 15.3517 9.98576 14.3196 8.43759 13.9755C7.92154 14.3196 7.40548 15.1797 6.71741 16.2118Z" fill="url(#paint24_linear_18_2391)" />
  <path style="mix-blend-mode:screen" d="M16.3505 8.81503C17.7267 8.98705 19.2748 8.81503 20.651 8.98705C20.0776 8.1843 19.5615 7.43888 19.1028 6.75081C17.4973 6.86549 15.8918 7.32421 14.2863 8.12696C14.8023 8.64302 15.4904 8.81503 16.3505 8.81503ZM14.2863 8.12696C15.8918 7.32421 17.4973 6.86549 19.1028 6.75081C18.7588 6.06273 18.4147 5.54668 18.4147 4.68659C16.8665 4.85861 15.1464 5.54668 14.4583 6.57879C13.9422 7.26687 14.1143 7.78292 14.2863 8.12696ZM20.651 8.98705C24.7794 9.15907 26.1555 10.5352 27.8757 11.2233C29.2519 11.5673 28.7358 9.84714 28.3918 9.15907C25.6395 7.78292 22.1991 6.57879 19.1028 6.75081C19.5615 7.43888 20.0776 8.1843 20.651 8.98705ZM19.1028 6.75081C22.1991 6.57879 25.6395 7.78292 28.3918 9.15907C27.9331 8.47099 27.3597 7.84026 26.6716 7.26687C24.4354 5.54668 21.339 4.51457 18.4147 4.68659C18.4147 5.54668 18.7588 6.06273 19.1028 6.75081Z" fill="url(#paint25_linear_18_2391)" />
  <path style="mix-blend-mode:screen" opacity="0.5" d="M37.1647 50.4434C37.1647 51.9916 37.6807 53.1957 38.7128 54.0558C39.4009 54.9159 40.433 55.432 41.4651 55.604C38.8849 49.2393 40.949 37.7141 40.777 30.8333C39.4009 30.4893 38.1968 29.8012 36.9926 29.4572C36.878 36.4526 36.9353 43.448 37.1647 50.4434ZM36.9926 29.4572C38.1968 29.8012 39.4009 30.4893 40.777 30.8333C40.605 28.9411 40.089 24.6407 41.4651 23.0925C40.8917 22.8632 40.261 22.8058 39.5729 22.9205C37.1647 23.6086 36.9926 27.393 36.9926 29.4572ZM41.4651 55.604C43.0133 55.948 44.5615 55.604 45.5936 54.5719C46.2816 53.8838 46.7977 52.8517 46.7977 51.4755C46.7977 46.143 46.7977 37.8861 45.7656 31.6934C44.3894 31.3494 42.4972 31.3494 40.777 30.8333C40.949 37.7141 38.8849 49.2393 41.4651 55.604ZM40.777 30.8333C42.4972 31.3494 44.3894 31.3494 45.7656 31.6934C45.4216 29.2852 45.0775 27.0489 43.7013 25.1567C43.1853 24.2966 42.3252 23.4366 41.4651 23.0925C40.089 24.6407 40.605 28.9411 40.777 30.8333Z" fill="url(#paint26_linear_18_2391)" />
  <path style="mix-blend-mode:screen" opacity="0.5" d="M37.5088 11.0512C38.3689 12.0833 39.573 12.4274 40.9491 12.5994C40.7771 11.7393 41.1212 9.33105 41.2932 6.75078C39.573 6.75078 36.8207 6.75078 35.7886 7.09481C35.9606 8.64298 36.4766 10.1911 37.5088 11.0512ZM35.7886 7.09481C36.8207 6.75078 39.573 6.75078 41.2932 6.75078C41.4652 4.51454 41.6372 2.10628 41.4652 0.902153C39.573 0.902153 37.6808 1.41821 36.6487 2.96637C35.9606 3.99848 35.7886 5.54665 35.7886 7.09481ZM40.9491 12.5994C43.0133 12.7714 45.4216 12.0833 47.4859 11.0512C49.3781 10.1911 51.0982 9.15904 51.7863 7.78289C49.7221 7.43885 43.8735 6.92279 41.2932 6.75078C41.1212 9.33105 40.7771 11.7393 40.9491 12.5994ZM41.2932 6.75078C43.8735 6.92279 49.7221 7.43885 51.7863 7.78289C52.3024 6.57876 52.1303 5.20261 50.2381 3.65445C48.3459 2.10628 44.7336 0.730135 41.4652 0.902153C41.6372 2.10628 41.4652 4.51454 41.2932 6.75078Z" fill="url(#paint27_linear_18_2391)" />
  <path style="mix-blend-mode:screen" d="M37.6808 10.3632C38.3689 11.0513 39.1143 11.4526 39.9171 11.5673C40.0891 11.2233 40.0891 9.84712 40.0891 8.47097C39.057 8.29896 37.1648 8.12694 36.4767 8.12694C36.6487 8.98703 37.1648 9.84713 37.6808 10.3632ZM36.4767 8.12694C37.1648 8.12694 39.057 8.29896 40.0891 8.47097C40.0891 7.43886 40.2611 6.23474 40.4332 5.71868C39.229 5.54666 38.0249 5.71868 37.3368 6.23474C36.6487 6.75079 36.3047 7.43887 36.4767 8.12694ZM39.9171 11.5673C41.2932 11.9113 42.4974 11.7393 43.7015 11.3953C44.9056 11.0513 45.5937 10.3632 45.7657 9.50309C44.7336 9.33107 41.6373 8.81501 40.0891 8.47097C40.0891 9.84712 40.0891 11.2233 39.9171 11.5673ZM40.0891 8.47097C41.6373 8.81501 44.7336 9.33107 45.7657 9.50309C45.9378 8.81501 45.7657 8.12694 44.9056 7.43887C43.8735 6.75079 42.1533 6.06272 40.4332 5.71868C40.2611 6.23474 40.0891 7.43886 40.0891 8.47097Z" fill="url(#paint28_linear_18_2391)" />
  <path style="mix-blend-mode:screen" d="M41.4652 33.7577C41.9239 33.8724 42.5546 33.9297 43.3573 33.9297C41.4651 33.5857 40.9491 30.6614 41.1211 28.4251C40.261 28.5972 39.2289 28.7692 38.7129 28.9412C38.3688 31.0054 39.2289 33.4137 41.4652 33.7577ZM38.7129 28.9412C39.2289 28.7692 40.261 28.5972 41.1211 28.4251C41.2931 27.049 41.8092 25.8449 42.3253 25.5008C41.4078 25.7302 40.6624 26.0169 40.089 26.3609C39.2289 26.705 38.7129 27.7371 38.7129 28.9412ZM43.3573 33.9297C45.7656 33.9297 49.0339 33.2416 51.0982 31.6935C52.1303 30.8334 52.8184 29.6293 52.8184 28.5972C51.2702 27.565 44.2175 27.7371 41.1211 28.4251C40.9491 30.6614 41.4651 33.5857 43.3573 33.9297ZM41.1211 28.4251C44.2175 27.7371 51.2702 27.565 52.8184 28.5972C52.933 27.9091 52.761 27.221 52.3023 26.5329C50.7542 24.4687 45.7656 24.4687 42.3253 25.5008C41.8092 25.8449 41.2931 27.049 41.1211 28.4251Z" fill="url(#paint29_linear_18_2391)" />
  <path style="mix-blend-mode:screen" d="M43.3573 15.5238C42.1532 17.416 44.5615 17.932 47.1417 18.104C47.4858 16.8999 48.1738 15.1797 48.5179 13.6316C46.7977 13.9756 44.9055 14.1476 44.5615 14.1476C44.1027 14.6063 43.7013 15.065 43.3573 15.5238ZM44.5615 14.1476C44.9055 14.1476 46.7977 13.9756 48.5179 13.6316C48.8619 12.5994 49.034 11.7394 49.206 11.0513C47.8298 11.7394 46.4537 12.5995 45.5936 13.2875C45.2495 13.5169 44.9055 13.8036 44.5615 14.1476ZM47.1417 18.104C50.0661 18.2761 57.6349 18.7921 58.3229 14.8357C58.4376 13.9183 58.3229 13.1155 57.9789 12.4274C54.8825 12.4274 51.6142 12.9435 48.5179 13.6316C48.1738 15.1797 47.4858 16.8999 47.1417 18.104ZM48.5179 13.6316C51.6142 12.9435 54.8825 12.4274 57.9789 12.4274C57.7495 12.0834 57.4628 11.7394 57.1188 11.3953C55.0546 9.3311 51.9583 9.84715 49.206 11.0513C49.034 11.7394 48.8619 12.5994 48.5179 13.6316Z" fill="url(#paint30_linear_18_2391)" />
  <path style="mix-blend-mode:screen" opacity="0.6" d="M45.9376 15.6958C46.4537 15.8678 47.6578 16.0398 48.6899 16.0398C48.1739 15.6958 48.0019 14.8357 47.8298 13.9756C46.9697 14.1476 45.7656 14.3196 45.2496 14.4916C45.0775 15.0077 45.0775 15.5237 45.9376 15.6958ZM45.2496 14.4916C45.7656 14.3196 46.9697 14.1476 47.8298 13.9756C47.8298 13.1155 47.8298 12.2554 48.0019 12.0834C47.4285 12.3127 46.8551 12.5994 46.2817 12.9435C45.9376 13.2875 45.4216 13.9756 45.2496 14.4916ZM48.6899 16.0398C50.7541 16.0398 52.9904 15.6958 53.3344 14.1476C53.5065 13.4595 53.1624 12.9435 52.6464 12.4274C52.1303 13.1155 49.378 13.8036 47.8298 13.9756C48.0019 14.8357 48.1739 15.6958 48.6899 16.0398ZM47.8298 13.9756C49.378 13.8036 52.1303 13.1155 52.6464 12.4274C52.3023 11.9114 51.4422 11.5673 50.7542 11.5673C49.8941 11.3953 48.862 11.5673 48.0019 12.0834C47.8298 12.2554 47.8298 13.1155 47.8298 13.9756Z" fill="url(#paint31_linear_18_2391)" />
  <path style="mix-blend-mode:screen" d="M10.3301 44.7668C10.3301 46.315 11.1902 47.5191 12.2223 48.0352C12.7383 42.0145 13.0824 35.8219 14.4585 29.8012C13.2544 30.1453 12.2223 30.4893 12.0503 30.3173C10.8461 34.7898 10.6741 39.9503 10.3301 44.7668ZM12.0503 30.3173C12.2223 30.4893 13.2544 30.1453 14.4585 29.8012C14.8025 27.909 15.4906 26.0168 16.3507 24.6407C15.1466 25.3287 14.1145 26.1888 13.9425 26.5329C13.0824 27.565 12.3943 28.7691 12.0503 30.3173ZM12.2223 48.0352C13.7705 48.8953 16.0067 48.5512 16.1787 46.831C16.8668 40.9824 16.6947 35.1338 17.7268 29.4572C17.8989 28.5971 16.0067 29.2852 14.4585 29.8012C13.0824 35.8219 12.7383 42.0145 12.2223 48.0352ZM14.4585 29.8012C16.0067 29.2852 17.8989 28.5971 17.7268 29.4572C18.2429 27.565 18.759 26.3609 19.103 24.4687C19.4471 22.7485 17.8989 23.6086 16.3507 24.6407C15.4906 26.0168 14.8025 27.909 14.4585 29.8012Z" fill="url(#paint32_linear_18_2391)" />
  <path style="mix-blend-mode:screen" d="M14.9743 29.2852C16.3504 30.1452 18.0707 31.0053 19.7908 31.5214C19.6188 29.9732 19.2748 28.081 18.9308 26.0168C17.3826 26.0168 14.4582 26.5329 13.2541 27.3929C13.5982 28.081 14.2862 28.7691 14.9743 29.2852ZM13.2541 27.3929C14.4582 26.5329 17.3826 26.0168 18.9308 26.0168C18.7587 24.6407 18.5867 23.2645 18.5867 22.2324C16.5225 22.4044 14.1142 24.2966 13.4261 26.0168C13.1968 26.4755 13.1394 26.9342 13.2541 27.3929ZM19.7908 31.5214C22.3711 32.0374 24.7794 32.2095 26.3275 31.5214C27.0156 31.1774 27.3596 29.6292 27.3596 28.081C26.3275 27.565 21.339 26.1888 18.9308 26.0168C19.2748 28.081 19.6188 29.9732 19.7908 31.5214ZM18.9308 26.0168C21.339 26.1888 26.3275 27.565 27.3596 28.081C27.3596 27.0489 27.1876 26.0168 26.8436 25.6728C25.9835 24.2966 20.995 22.0604 18.5867 22.2324C18.5867 23.2645 18.7587 24.6407 18.9308 26.0168Z" fill="url(#paint33_linear_18_2391)" />
  <path style="mix-blend-mode:screen" d="M36.8209 12.7715C37.3943 13.2302 37.9677 13.5742 38.5411 13.8036C38.7131 13.8036 38.3691 13.2875 38.025 12.9435C37.2223 12.3701 36.4768 11.7967 35.7888 11.2233C36.1328 11.9114 36.8209 12.5994 36.8209 12.7715ZM35.7888 11.2233C36.4768 11.7967 37.2223 12.3701 38.025 12.9435C37.853 12.5994 37.681 12.4274 37.853 12.2554C37.509 12.0834 35.6167 10.0192 35.6167 10.0192C35.2727 10.0192 35.4447 10.7072 35.7888 11.2233ZM38.5411 13.8036C39.5732 14.1476 40.6053 14.3196 41.6374 14.1476C41.9814 14.0329 42.1535 13.9183 42.1535 13.8036C40.7773 13.8036 39.4012 13.5169 38.025 12.9435C38.3691 13.2875 38.7131 13.8036 38.5411 13.8036ZM38.025 12.9435C39.4012 13.5169 40.7773 13.8036 42.1535 13.8036C42.1535 13.6889 41.9814 13.6315 41.6374 13.6315C40.2612 13.4595 38.8851 13.1155 37.853 12.2554C37.681 12.4274 37.853 12.5994 38.025 12.9435Z" fill="url(#paint34_linear_18_2391)" />
  <path style="mix-blend-mode:screen" d="M27.3595 13.8035C28.3917 14.0329 29.4811 14.0329 30.6279 13.8035C30.9719 13.6315 31.144 13.2875 31.144 13.2875C29.5958 13.6315 28.5637 13.6315 27.3595 13.8035ZM31.144 13.2875C31.144 13.2875 30.9719 13.6315 30.6279 13.8035C31.316 13.5742 32.004 13.3448 32.6921 13.1154C33.2082 12.7714 33.5522 12.4274 33.3802 12.2553C33.2082 12.0833 31.316 13.1154 31.144 13.2875ZM27.3595 13.8035C27.2449 13.8035 27.1875 13.8035 27.1875 13.8035C26.6715 13.8035 27.3596 14.1476 27.7036 14.1476C28.2197 14.1476 28.7357 14.3196 29.4238 14.1476C29.5958 14.1476 30.1118 13.9755 30.6279 13.8035C29.4811 14.0329 28.3917 14.0329 27.3595 13.8035ZM30.6279 13.8035C30.1118 13.9755 29.5958 14.1476 29.4238 14.1476C30.2839 14.1476 31.1439 13.9755 31.66 13.8035C31.66 13.8035 32.3481 13.4595 32.6921 13.1154C32.004 13.3448 31.316 13.5742 30.6279 13.8035Z" fill="url(#paint35_linear_18_2391)" />
  <path style="mix-blend-mode:screen" d="M4.65325 46.315C1.04087 44.2508 0.352836 40.2944 0.180818 36.854C0.00879956 38.0581 0.00878906 39.0902 0.00878906 39.7783C0.180807 41.3265 0.524844 42.8747 1.72897 44.2508C2.41705 45.0536 3.21979 45.6843 4.13722 46.143C4.2519 46.2577 4.4239 46.315 4.65325 46.315Z" fill="url(#paint36_radial_18_2391)" />
  <path style="mix-blend-mode:screen" opacity="0.3" d="M32.004 58.0122C32.1186 58.471 32.2333 58.7003 32.348 58.7003C32.348 55.776 32.52 43.5627 32.52 35.8219C31.8319 35.8219 31.3159 35.8219 30.7998 36.1659C30.7998 43.9067 31.3159 55.0879 32.004 58.0122ZM30.7998 35.8219C30.7998 35.9366 30.7998 36.0512 30.7998 36.1659C31.3159 35.8219 31.8319 35.8219 32.52 35.8219C32.52 32.6109 32.4626 29.3999 32.348 26.1888C32.0039 26.1888 31.6599 26.3609 31.4879 26.8769C31.1438 27.909 30.7998 30.3173 30.7998 35.8219ZM32.348 58.7003C32.5773 58.7003 32.7494 58.471 32.864 58.0122C33.5521 55.0879 34.0681 43.9067 34.0681 36.1659C33.5521 35.9939 33.036 35.9939 32.52 35.8219C32.52 43.5627 32.348 55.776 32.348 58.7003ZM32.52 35.8219C33.036 35.9939 33.5521 35.9939 34.0681 36.1659C34.0681 36.0512 34.0681 35.9366 34.0681 35.8219C34.0681 30.3173 33.7241 27.909 33.3801 26.8769C33.2081 26.3609 32.864 26.1888 32.348 26.1888C32.4626 29.3999 32.52 32.6109 32.52 35.8219Z" fill="url(#paint37_linear_18_2391)" />
  <path style="mix-blend-mode:screen" d="M35.2725 57.4962C32.5202 61.2806 27.7036 61.7967 22.8871 60.9366C17.7266 60.2485 12.05 57.8403 9.12564 54.5719C8.09353 53.3678 7.5775 51.8196 7.92154 49.7554L8.26555 47.1751C5.51325 47.0031 3.10502 46.143 1.72887 44.2508C0.524739 42.8747 0.180702 41.3265 0.00868351 39.7783C-0.163335 35.8219 2.58893 20.8563 3.79306 17.0719C4.99719 13.2875 7.06141 10.8792 10.6738 9.84712C11.3619 9.61776 11.9926 9.44574 12.566 9.33106C12.91 1.76225 31.6601 -4.43041 35.2725 4.17051C38.8848 -4.43041 57.6348 1.76225 57.9789 9.33106C58.6669 9.44574 59.2977 9.61776 59.8711 9.84712C63.4835 10.8792 65.5477 13.2875 66.7518 17.0719C67.9559 20.8563 70.7082 35.8219 70.5362 39.7783C70.5362 41.3265 70.0202 42.8747 68.816 44.2508C67.4399 46.143 65.0316 47.0031 62.2793 47.1751L62.6234 49.7554C62.9674 51.8196 62.6233 53.3678 61.4192 54.5719C58.4949 57.8403 52.8183 60.2485 47.6578 60.9366C42.8412 61.7967 38.0248 61.2806 35.2725 57.4962Z" fill="url(#paint38_radial_18_2391)" />
  <defs>
    <radialGradient id="paint0_radial_18_2391" cx="0" cy="0" r="1" gradientUnits="userSpaceOnUse" gradientTransform="translate(35.2897 14.7978) scale(31.2007 31.2007)">
      <stop stop-color="#FCA911" />
      <stop offset="1" stop-color="#915606" />
    </radialGradient>
    <radialGradient id="paint1_radial_18_2391" cx="0" cy="0" r="1" gradientUnits="userSpaceOnUse" gradientTransform="translate(21.848 17.2663) scale(26.2259 26.2259)">
      <stop stop-color="#F9A50B" />
      <stop offset="1" stop-color="#FCA911" />
    </radialGradient>
    <linearGradient id="paint2_linear_18_2391" x1="37.1544" y1="12.08" x2="40.6908" y2="8.37099" gradientUnits="userSpaceOnUse">
      <stop stop-color="#DE910A" />
      <stop offset="1" stop-color="#FEB53B" />
    </linearGradient>
    <linearGradient id="paint3_linear_18_2391" x1="22.2628" y1="11.9078" x2="23.4921" y2="6.7183" gradientUnits="userSpaceOnUse">
      <stop stop-color="#DC8F0A" />
      <stop offset="1" stop-color="#FCA911" />
    </linearGradient>
    <linearGradient id="paint4_linear_18_2391" x1="37.0047" y1="11.9027" x2="40.7966" y2="7.6458" gradientUnits="userSpaceOnUse">
      <stop stop-color="#080000" />
      <stop offset="1" stop-color="#DE910A" />
    </linearGradient>
    <linearGradient id="paint5_linear_18_2391" x1="13.5946" y1="10.6986" x2="21.6982" y2="6.60755" gradientUnits="userSpaceOnUse">
      <stop stop-color="#080000" />
      <stop offset="1" stop-color="#FCA911" />
    </linearGradient>
    <radialGradient id="paint6_radial_18_2391" cx="0" cy="0" r="1" gradientUnits="userSpaceOnUse" gradientTransform="translate(19.2266 23.8942) scale(13.82 13.82)">
      <stop offset="0.714" stop-color="#FFBA4B" />
      <stop offset="1" stop-color="#FFDEC9" />
    </radialGradient>
    <linearGradient id="paint7_linear_18_2391" x1="8.30856" y1="47.0942" x2="11.3362" y2="41.2663" gradientUnits="userSpaceOnUse">
      <stop stop-color="#FEB53B" />
      <stop offset="1" stop-color="#ED8700" />
    </linearGradient>
    <linearGradient id="paint8_linear_18_2391" x1="62.5425" y1="47.0942" x2="45.7087" y2="13.2565" gradientUnits="userSpaceOnUse">
      <stop stop-color="#DA8E0A" />
      <stop offset="1" stop-color="#FDB02A" />
    </linearGradient>
    <linearGradient id="paint9_linear_18_2391" x1="65.2947" y1="39.8764" x2="63.7811" y2="27.1627" gradientUnits="userSpaceOnUse">
      <stop stop-color="#080000" />
      <stop offset="1" stop-color="#FCA911" />
    </linearGradient>
    <linearGradient id="paint10_linear_18_2391" x1="14.7523" y1="32.9698" x2="20.4957" y2="26.125" gradientUnits="userSpaceOnUse">
      <stop stop-color="#FFDEC9" />
      <stop offset="1" stop-color="#ED8700" />
    </linearGradient>
    <linearGradient id="paint11_linear_18_2391" x1="49.2352" y1="25.5301" x2="57.2657" y2="34.3437" gradientUnits="userSpaceOnUse">
      <stop stop-color="#FFDEC9" />
      <stop offset="1" stop-color="#EA8500" />
    </linearGradient>
    <linearGradient id="paint12_linear_18_2391" x1="9.66771" y1="54.4704" x2="33.5695" y2="59.0917" gradientUnits="userSpaceOnUse">
      <stop stop-color="#FEB53B" />
      <stop offset="1" stop-color="#DC8F0A" />
    </linearGradient>
    <linearGradient id="paint13_linear_18_2391" x1="58.1337" y1="39.2106" x2="65.4443" y2="44.6208" gradientUnits="userSpaceOnUse">
      <stop stop-color="#ED8700" />
      <stop offset="1" stop-color="#FFDEC9" />
    </linearGradient>
    <linearGradient id="paint14_linear_18_2391" x1="42.253" y1="61.0553" x2="60.9116" y2="54.5249" gradientUnits="userSpaceOnUse">
      <stop stop-color="#FDB12D" />
      <stop offset="1" stop-color="#B97508" />
    </linearGradient>
    <linearGradient id="paint15_linear_18_2391" x1="1.79085" y1="44.1819" x2="8.57025" y2="15.808" gradientUnits="userSpaceOnUse">
      <stop stop-color="#080000" />
      <stop offset="1" stop-color="#FCA911" />
    </linearGradient>
    <linearGradient id="paint16_linear_18_2391" x1="9.5817" y1="54.5496" x2="19.4501" y2="29.9508" gradientUnits="userSpaceOnUse">
      <stop stop-color="#080000" />
      <stop offset="1" stop-color="#FCA911" />
    </linearGradient>
    <radialGradient id="paint17_radial_18_2391" cx="0" cy="0" r="1" gradientUnits="userSpaceOnUse" gradientTransform="translate(13.7547 57.0112) scale(10.1319 10.1319)">
      <stop stop-color="#FEB53B" />
      <stop offset="1" stop-color="#0C0000" />
    </radialGradient>
    <radialGradient id="paint18_radial_18_2391" cx="0" cy="0" r="1" gradientUnits="userSpaceOnUse" gradientTransform="translate(15.6916 45.5564) scale(58.3865 58.3865)">
      <stop offset="0.75" stop-color="#FFDEC9" />
      <stop offset="1" stop-color="#FFBB4F" />
    </radialGradient>
    <radialGradient id="paint19_radial_18_2391" cx="0" cy="0" r="1" gradientUnits="userSpaceOnUse" gradientTransform="translate(44.3035 67.6436) scale(11.9123 11.9123)">
      <stop stop-color="#FEB53B" />
      <stop offset="1" stop-color="#0C0000" />
    </radialGradient>
    <linearGradient id="paint20_linear_18_2391" x1="37.323" y1="56.8081" x2="41.6511" y2="30.4222" gradientUnits="userSpaceOnUse">
      <stop stop-color="#080000" />
      <stop offset="1" stop-color="#FCA911" />
    </linearGradient>
    <linearGradient id="paint21_linear_18_2391" x1="45.0655" y1="18.1109" x2="49.4524" y2="13.398" gradientUnits="userSpaceOnUse">
      <stop stop-color="#080000" />
      <stop offset="1" stop-color="#DE910A" />
    </linearGradient>
    <linearGradient id="paint22_linear_18_2391" x1="3.60888" y1="26.0186" x2="8.8079" y2="15.1878" gradientUnits="userSpaceOnUse">
      <stop stop-color="#080000" />
      <stop offset="1" stop-color="#FEB53B" />
    </linearGradient>
    <linearGradient id="paint23_linear_18_2391" x1="10.8303" y1="48.0782" x2="19.0269" y2="28.3638" gradientUnits="userSpaceOnUse">
      <stop stop-color="#080000" />
      <stop offset="1" stop-color="#FCA911" />
    </linearGradient>
    <linearGradient id="paint24_linear_18_2391" x1="4.80111" y1="17.3901" x2="6.75936" y2="15.9323" gradientUnits="userSpaceOnUse">
      <stop stop-color="#080000" />
      <stop offset="1" stop-color="#FFE592" />
    </linearGradient>
    <linearGradient id="paint25_linear_18_2391" x1="16.366" y1="8.66882" x2="18.95" y2="6.72375" gradientUnits="userSpaceOnUse">
      <stop stop-color="#080000" />
      <stop offset="1" stop-color="#FFE592" />
    </linearGradient>
    <linearGradient id="paint26_linear_18_2391" x1="38.6612" y1="53.9079" x2="40.7293" y2="30.8282" gradientUnits="userSpaceOnUse">
      <stop stop-color="#080000" />
      <stop offset="1" stop-color="#FEB53B" />
    </linearGradient>
    <linearGradient id="paint27_linear_18_2391" x1="37.5088" y1="11.0048" x2="41.2361" y2="6.75565" gradientUnits="userSpaceOnUse">
      <stop stop-color="#080000" />
      <stop offset="1" stop-color="#FCA911" />
    </linearGradient>
    <linearGradient id="paint28_linear_18_2391" x1="37.8133" y1="10.3752" x2="40.1284" y2="8.5016" gradientUnits="userSpaceOnUse">
      <stop stop-color="#080000" />
      <stop offset="1" stop-color="#FFE592" />
    </linearGradient>
    <linearGradient id="paint29_linear_18_2391" x1="41.5512" y1="33.7852" x2="41.3105" y2="28.6539" gradientUnits="userSpaceOnUse">
      <stop stop-color="#080000" />
      <stop offset="1" stop-color="#FFE592" />
    </linearGradient>
    <linearGradient id="paint30_linear_18_2391" x1="44.1606" y1="15.4704" x2="49.0824" y2="13.5841" gradientUnits="userSpaceOnUse">
      <stop stop-color="#080000" />
      <stop offset="1" stop-color="#FEB53B" />
    </linearGradient>
    <linearGradient id="paint31_linear_18_2391" x1="46.0443" y1="15.7663" x2="47.9421" y2="14.0585" gradientUnits="userSpaceOnUse">
      <stop stop-color="#080000" />
      <stop offset="1" stop-color="#FFE592" />
    </linearGradient>
    <linearGradient id="paint32_linear_18_2391" x1="10.435" y1="44.4778" x2="14.3046" y2="30.2667" gradientUnits="userSpaceOnUse">
      <stop stop-color="#080000" />
      <stop offset="1" stop-color="#FEB53B" />
    </linearGradient>
    <linearGradient id="paint33_linear_18_2391" x1="15.148" y1="29.2181" x2="18.8875" y2="26.1026" gradientUnits="userSpaceOnUse">
      <stop stop-color="#080000" />
      <stop offset="1" stop-color="#FFE592" />
    </linearGradient>
    <linearGradient id="paint34_linear_18_2391" x1="36.955" y1="12.682" x2="38.1763" y2="12.9179" gradientUnits="userSpaceOnUse">
      <stop stop-color="#FCA911" />
      <stop offset="1" stop-color="#FFCD90" />
    </linearGradient>
    <linearGradient id="paint35_linear_18_2391" x1="27.6468" y1="13.745" x2="30.6812" y2="13.745" gradientUnits="userSpaceOnUse">
      <stop stop-color="#FCA911" />
      <stop offset="1" stop-color="#FFCD90" />
    </linearGradient>
    <radialGradient id="paint36_radial_18_2391" cx="0" cy="0" r="1" gradientUnits="userSpaceOnUse" gradientTransform="translate(-1.75783 45.1659) scale(6.54698 6.54702)">
      <stop stop-color="#FEB53B" />
      <stop offset="1" stop-color="#0C0000" />
    </radialGradient>
    <linearGradient id="paint37_linear_18_2391" x1="32.0573" y1="58.014" x2="32.446" y2="35.8719" gradientUnits="userSpaceOnUse">
      <stop stop-color="#080000" />
      <stop offset="1" stop-color="#FCA911" />
    </linearGradient>
    <radialGradient id="paint38_radial_18_2391" cx="0" cy="0" r="1" gradientUnits="userSpaceOnUse" gradientTransform="translate(59.8986 48.7439) scale(72.6331 72.6331)">
      <stop offset="0.525" stop-color="#080000" />
      <stop offset="1" stop-color="#FCA911" />
    </radialGradient>
  </defs>
</svg>